<svg xmlns="http://www.w3.org/2000/svg" viewBox="0 0 320 400" role="img" aria-label="동행 선배 1">
  <rect width="320" height="400" rx="28" fill="#eef4ff"/>
  <circle cx="160" cy="150" r="72" fill="#ffd7bf"/>
  <path d="M89 136c8-47 44-74 71-74 34 0 74 31 78 82-19-15-39-25-79-24-28 0-49 6-70 16z" fill="#1f3b78"/>
  <rect x="82" y="228" width="156" height="116" rx="58" fill="#2d63c8"/>
  <rect x="113" y="242" width="94" height="28" rx="14" fill="#d9e6ff"/>
  <circle cx="132" cy="147" r="7" fill="#273141"/>
  <circle cx="188" cy="147" r="7" fill="#273141"/>
  <path d="M136 186c13 13 35 13 48 0" stroke="#b45d4a" stroke-width="7" fill="none" stroke-linecap="round"/>
  <rect x="97" y="260" width="126" height="64" rx="22" fill="#fff"/>
  <text x="160" y="300" text-anchor="middle" font-family="Arial, sans-serif" font-size="28" font-weight="700" fill="#2d63c8">Walk</text>
</svg>
