<svg xmlns="http://www.w3.org/2000/svg" viewBox="0 0 320 400" role="img" aria-label="동행 선배 2">
  <rect width="320" height="400" rx="28" fill="#f0f8ef"/>
  <circle cx="160" cy="150" r="72" fill="#f2c9a5"/>
  <path d="M102 125c10-43 46-69 77-69 37 0 68 30 74 74-22-8-41-12-88-12-26 0-47 3-63 7z" fill="#125a4a"/>
  <path d="M84 340c2-66 40-112 76-112 40 0 75 41 79 112z" fill="#2f935c"/>
  <rect x="98" y="242" width="124" height="86" rx="20" fill="#ffffff"/>
  <rect x="116" y="260" width="88" height="18" rx="9" fill="#e0f2e8"/>
  <rect x="116" y="288" width="72" height="14" rx="7" fill="#d3eadb"/>
  <circle cx="134" cy="149" r="7" fill="#273141"/>
  <circle cx="186" cy="149" r="7" fill="#273141"/>
  <path d="M137 182c12 10 33 10 45 0" stroke="#a25547" stroke-width="7" fill="none" stroke-linecap="round"/>
</svg>
